<svg width="60" height="60" viewBox="0 0 60 60" fill="none" xmlns="http://www.w3.org/2000/svg">
<rect width="60" height="60" rx="16" fill="#CFFAEA"/>
<path d="M38.8375 26.1749C37.9854 25.312 37.0077 24.5829 35.9375 24.0124C35.6576 23.8558 35.3697 23.714 35.075 23.5874C34.4808 23.3187 33.8664 23.0972 33.2375 22.9249L32.6375 22.7874C32.2 22.6999 31.775 22.6374 31.3875 22.5874H30.8H30.5C30.1796 22.5627 29.8579 22.5627 29.5375 22.5874H29.2625H28.8H28.625C28.2048 22.6235 27.7873 22.6861 27.375 22.7749L26.7875 22.9124C26.1641 23.084 25.5541 23.3013 24.9625 23.5624C24.6625 23.6999 24.3625 23.8374 24.0875 23.9874C22.0966 25.0562 20.4327 26.6447 19.2728 28.5838C18.1128 30.523 17.5001 32.7403 17.5 34.9999V38.7499C17.5 40.4075 18.1585 41.9972 19.3306 43.1693C20.5027 44.3414 22.0924 44.9999 23.75 44.9999H36.25C37.9076 44.9999 39.4973 44.3414 40.6694 43.1693C41.8415 41.9972 42.5 40.4075 42.5 38.7499V34.9999C42.5077 33.3592 42.1876 31.7335 41.5587 30.2181C40.9298 28.7026 40.0046 27.3281 38.8375 26.1749ZM29.375 32.4999H30.625C31.4538 32.417 32.2816 32.6668 32.9262 33.1942C33.5709 33.7217 33.9796 34.4836 34.0625 35.3124C34.1454 36.1412 33.8956 36.969 33.3682 37.6136C32.8407 38.2583 32.0788 38.667 31.25 38.7499C31.25 39.0814 31.1183 39.3994 30.8839 39.6338C30.6495 39.8682 30.3315 39.9999 30 39.9999C29.6685 39.9999 29.3505 39.8682 29.1161 39.6338C28.8817 39.3994 28.75 39.0814 28.75 38.7499H27.5C27.1685 38.7499 26.8505 38.6182 26.6161 38.3838C26.3817 38.1494 26.25 37.8314 26.25 37.4999C26.25 37.1684 26.3817 36.8504 26.6161 36.616C26.8505 36.3816 27.1685 36.2499 27.5 36.2499H30.625C30.7908 36.2499 30.9497 36.1841 31.0669 36.0668C31.1842 35.9496 31.25 35.7907 31.25 35.6249C31.25 35.4591 31.1842 35.3002 31.0669 35.183C30.9497 35.0658 30.7908 34.9999 30.625 34.9999H29.375C28.6 35.0007 27.8524 34.7135 27.2773 34.194C26.7022 33.6746 26.3406 32.96 26.2627 32.189C26.1848 31.4179 26.3962 30.6454 26.8558 30.0215C27.3155 29.3975 27.9905 28.9666 28.75 28.8124V28.7499C28.75 28.4184 28.8817 28.1004 29.1161 27.866C29.3505 27.6316 29.6685 27.4999 30 27.4999C30.3315 27.4999 30.6495 27.6316 30.8839 27.866C31.1183 28.1004 31.25 28.4184 31.25 28.7499H32.5C32.8315 28.7499 33.1495 28.8816 33.3839 29.116C33.6183 29.3504 33.75 29.6684 33.75 29.9999C33.75 30.3314 33.6183 30.6494 33.3839 30.8838C33.1495 31.1182 32.8315 31.2499 32.5 31.2499H29.375C29.2092 31.2499 29.0503 31.3158 28.9331 31.433C28.8158 31.5502 28.75 31.7091 28.75 31.8749C28.75 32.0407 28.8158 32.1996 28.9331 32.3168C29.0503 32.4341 29.2092 32.4999 29.375 32.4999Z" fill="#00A86B"/>
<path d="M23.6625 21.425L23.925 21.3C24.6125 20.9878 25.3229 20.7288 26.05 20.525C27.3385 20.1808 28.6662 20.0043 30 20C31.334 19.9999 32.6622 20.1764 33.95 20.525C34.6848 20.7089 35.4038 20.9514 36.1 21.25L36.3375 21.3625L36.825 18.2125C36.9252 17.5589 36.8508 16.8905 36.6094 16.2749C36.368 15.6594 35.9681 15.1186 35.4503 14.7074C34.9325 14.2962 34.3152 14.0292 33.661 13.9335C33.0067 13.8378 32.3388 13.9168 31.725 14.1625L30.475 14.6625C30.178 14.7808 29.8469 14.7808 29.55 14.6625L28.3 14.1625C27.6861 13.9168 27.0182 13.8378 26.3639 13.9335C25.7097 14.0292 25.0924 14.2962 24.5746 14.7074C24.0568 15.1186 23.6569 15.6594 23.4155 16.2749C23.1741 16.8905 23.0997 17.5589 23.2 18.2125L23.6625 21.425Z" fill="#00A86B"/>
</svg>
