<svg width="48" height="48" viewBox="0 0 48 48" fill="none" xmlns="http://www.w3.org/2000/svg">
<rect width="48" height="48" rx="16" fill="#FCFCFC"/>
<path d="M31.1975 22H17.1975C15.8714 22 14.5997 22.5268 13.662 23.4645C12.7243 24.4021 12.1975 25.6739 12.1975 27V33C12.1975 34.3261 12.7243 35.5979 13.662 36.5355C14.5997 37.4732 15.8714 38 17.1975 38H31.1975C32.5236 38 33.7954 37.4732 34.733 36.5355C35.6707 35.5979 36.1975 34.3261 36.1975 33V27C36.1975 25.6739 35.6707 24.4021 34.733 23.4645C33.7954 22.5268 32.5236 22 31.1975 22ZM24.1975 34C23.4064 34 22.633 33.7654 21.9752 33.3259C21.3174 32.8864 20.8047 32.2616 20.502 31.5307C20.1992 30.7998 20.12 29.9956 20.2744 29.2196C20.4287 28.4437 20.8097 27.731 21.3691 27.1716C21.9285 26.6122 22.6412 26.2312 23.4171 26.0769C24.1931 25.9225 24.9973 26.0017 25.7282 26.3045C26.4591 26.6072 27.0839 27.1199 27.5234 27.7777C27.9629 28.4355 28.1975 29.2089 28.1975 30C28.1975 31.0609 27.7761 32.0783 27.0259 32.8284C26.2758 33.5786 25.2584 34 24.1975 34Z" fill="#FD3C4A"/>
<path d="M24.1975 32C25.3021 32 26.1975 31.1046 26.1975 30C26.1975 28.8954 25.3021 28 24.1975 28C23.0929 28 22.1975 28.8954 22.1975 30C22.1975 31.1046 23.0929 32 24.1975 32Z" fill="#FD3C4A"/>
<path d="M24.9075 10.2899C24.8145 10.1962 24.7039 10.1218 24.5821 10.071C24.4602 10.0203 24.3295 9.99414 24.1975 9.99414C24.0655 9.99414 23.9348 10.0203 23.8129 10.071C23.6911 10.1218 23.5805 10.1962 23.4875 10.2899L19.2475 14.5399C19.0539 14.7269 18.9425 14.9831 18.9378 15.2523C18.9331 15.5214 19.0355 15.7813 19.2225 15.9749C19.4095 16.1685 19.6657 16.2799 19.9348 16.2846C20.2039 16.2893 20.4639 16.1869 20.6575 15.9999L23.1975 13.4099V18.9999C23.1975 19.2652 23.3029 19.5195 23.4904 19.707C23.6779 19.8946 23.9323 19.9999 24.1975 19.9999C24.4627 19.9999 24.7171 19.8946 24.9046 19.707C25.0921 19.5195 25.1975 19.2652 25.1975 18.9999V13.4099L27.7375 15.9999C27.9238 16.1847 28.1752 16.2888 28.4375 16.2899C28.5774 16.2976 28.7174 16.2757 28.8483 16.2257C28.9793 16.1757 29.0982 16.0988 29.1975 15.9999C29.3838 15.8126 29.4883 15.5591 29.4883 15.2949C29.4883 15.0308 29.3838 14.7773 29.1975 14.5899L24.9075 10.2899Z" fill="#FD3C4A"/>
</svg>
