<svg width="60" height="60" viewBox="0 0 60 60" fill="none" xmlns="http://www.w3.org/2000/svg">
<rect width="60" height="60" rx="16" fill="#BDDCFF"/>
<path d="M43.75 27.5001H41.8625C41.5852 27.5119 41.3118 27.4311 41.0855 27.2704C40.8592 27.1097 40.6928 26.8783 40.6125 26.6126L38.5125 19.4501C38.1243 18.1591 37.329 17.0283 36.2455 16.2263C35.1619 15.4243 33.8481 14.9942 32.5 15.0001H22.1375C20.8893 15.0004 19.6698 15.3744 18.6361 16.0739C17.6024 16.7734 16.8018 17.7665 16.3375 18.9251L12.775 27.8376C12.5905 28.2811 12.497 28.7572 12.5 29.2376V35.0001C12.5001 36.4647 13.0145 37.8828 13.9534 39.0068C14.8924 40.1308 16.1963 40.8894 17.6375 41.1501C17.8971 42.2342 18.5116 43.2004 19.3832 43.8953C20.2549 44.5902 21.3338 44.9739 22.4485 44.9854C23.5632 44.9969 24.6497 44.6355 25.5356 43.9587C26.4214 43.282 27.0556 42.3286 27.3375 41.2501H32.6625C32.9422 42.3201 33.5687 43.2671 34.444 43.9431C35.3193 44.619 36.3941 44.9857 37.5 44.9857C38.6059 44.9857 39.6807 44.619 40.556 43.9431C41.4313 43.2671 42.0578 42.3201 42.3375 41.2501H43.75C44.7446 41.2501 45.6984 40.855 46.4017 40.1517C47.1049 39.4484 47.5 38.4946 47.5 37.5001V31.2501C47.5 30.2555 47.1049 29.3017 46.4017 28.5984C45.6984 27.8951 44.7446 27.5001 43.75 27.5001ZM22.5 42.5001C22.0056 42.5001 21.5222 42.3534 21.1111 42.0787C20.7 41.804 20.3795 41.4136 20.1903 40.9568C20.0011 40.5 19.9516 39.9973 20.048 39.5123C20.1445 39.0274 20.3826 38.5819 20.7322 38.2323C21.0819 37.8827 21.5273 37.6446 22.0123 37.5481C22.4972 37.4516 22.9999 37.5011 23.4567 37.6904C23.9135 37.8796 24.304 38.2 24.5787 38.6111C24.8534 39.0223 25 39.5056 25 40.0001C25 40.6631 24.7366 41.299 24.2678 41.7678C23.7989 42.2367 23.163 42.5001 22.5 42.5001ZM28.75 27.5001H15.5875L18.65 19.8626C18.9279 19.1648 19.4089 18.5666 20.0307 18.1454C20.6525 17.7241 21.3865 17.4993 22.1375 17.5001H28.75V27.5001ZM31.25 27.5001V17.5001H32.5C33.3125 17.4931 34.1052 17.7501 34.759 18.2325C35.4127 18.715 35.8921 19.3967 36.125 20.1751L38.2625 27.3251C38.2822 27.3855 38.3073 27.4441 38.3375 27.5001H31.25ZM37.5 42.5001C37.0056 42.5001 36.5222 42.3534 36.1111 42.0787C35.7 41.804 35.3795 41.4136 35.1903 40.9568C35.0011 40.5 34.9516 39.9973 35.048 39.5123C35.1445 39.0274 35.3826 38.5819 35.7322 38.2323C36.0819 37.8827 36.5273 37.6446 37.0123 37.5481C37.4972 37.4516 37.9999 37.5011 38.4567 37.6904C38.9135 37.8796 39.304 38.2 39.5787 38.6111C39.8534 39.0223 40 39.5056 40 40.0001C40 40.6631 39.7366 41.299 39.2678 41.7678C38.7989 42.2367 38.163 42.5001 37.5 42.5001ZM45 35.0001H43.75C43.4185 35.0001 43.1005 34.8684 42.8661 34.6339C42.6317 34.3995 42.5 34.0816 42.5 33.7501C42.5 33.4185 42.6317 33.1006 42.8661 32.8662C43.1005 32.6318 43.4185 32.5001 43.75 32.5001H45V35.0001Z" fill="#0077FF"/>
</svg>
