<svg width="32" height="32" viewBox="0 0 32 32" fill="none" xmlns="http://www.w3.org/2000/svg">
<path d="M20.13 17.9298V18.9298C20.13 19.5865 20.0007 20.2366 19.7494 20.8433C19.4981 21.4499 19.1298 22.0011 18.6655 22.4654C18.2012 22.9297 17.65 23.298 17.0434 23.5492C16.4368 23.8005 15.7866 23.9298 15.13 23.9298H11.87C11.8546 24.4767 11.6899 25.009 11.3938 25.469C11.0977 25.929 10.6814 26.2993 10.19 26.5398C9.78016 26.7446 9.32814 26.8508 8.87 26.8498C8.19227 26.8539 7.53314 26.6283 7 26.2098L3.29 23.2998C2.92867 23.0194 2.63624 22.6601 2.43507 22.2493C2.2339 21.8386 2.12932 21.3872 2.12932 20.9298C2.12932 20.4725 2.2339 20.0211 2.43507 19.6104C2.63624 19.1996 2.92867 18.8403 3.29 18.5598L7 15.6498C7.44699 15.2931 7.98665 15.0716 8.55537 15.0113C9.12409 14.9511 9.69818 15.0547 10.21 15.3098C10.8915 15.6358 11.4164 16.2182 11.67 16.9298H19.1C19.2338 16.9258 19.3671 16.9487 19.4919 16.9972C19.6167 17.0456 19.7305 17.1187 19.8266 17.2119C19.9226 17.3052 19.999 17.4168 20.0511 17.5401C20.1032 17.6634 20.1301 17.796 20.13 17.9298Z" fill="#C6C6C6"/>
<path d="M29.87 11.07C29.8701 11.5273 29.7656 11.9786 29.5645 12.3893C29.3635 12.8001 29.0712 13.1595 28.71 13.44L25 16.35C24.4594 16.77 23.7946 16.9986 23.11 17C22.6519 17.0009 22.1998 16.8947 21.79 16.69C21.1085 16.364 20.5836 15.7816 20.33 15.07H12.87C12.6048 15.07 12.3504 14.9646 12.1629 14.7771C11.9754 14.5895 11.87 14.3352 11.87 14.07V13.07C11.87 11.7439 12.3968 10.4721 13.3345 9.53442C14.2721 8.59674 15.5439 8.06995 16.87 8.06995H20.13C20.1422 7.5109 20.3103 6.96638 20.6156 6.49784C20.9208 6.02929 21.3508 5.65537 21.8573 5.41828C22.3637 5.18118 22.9263 5.09034 23.4816 5.15602C24.0369 5.22169 24.5628 5.44126 25 5.78995L28.71 8.69995C29.0712 8.98045 29.3635 9.33981 29.5645 9.75057C29.7656 10.1613 29.8701 10.6126 29.87 11.07Z" fill="#C6C6C6"/>
</svg>
